<?xml version="1.0" encoding="UTF-8" ?>
<svg version="1.1" width="1200" height="800" xmlns="http://www.w3.org/2000/svg" shape-rendering="crispEdges">
<rect x="54" y="0" width="1092" height="800" fill="#5FDFDD" />
<rect x="46" y="2" width="8" height="796" fill="#5FDFDD" />
<rect x="1146" y="2" width="8" height="796" fill="#5FDFDD" />
<rect x="40" y="4" width="6" height="792" fill="#5FDFDD" />
<rect x="1154" y="4" width="6" height="792" fill="#5FDFDD" />
<rect x="36" y="6" width="4" height="788" fill="#5FDFDD" />
<rect x="1160" y="6" width="4" height="788" fill="#5FDFDD" />
<rect x="32" y="8" width="4" height="784" fill="#5FDFDD" />
<rect x="1164" y="8" width="4" height="784" fill="#5FDFDD" />
<rect x="30" y="10" width="2" height="780" fill="#5FDFDD" />
<rect x="1168" y="10" width="2" height="780" fill="#5FDFDD" />
<rect x="26" y="12" width="4" height="776" fill="#5FDFDD" />
<rect x="1170" y="12" width="4" height="776" fill="#5FDFDD" />
<rect x="24" y="14" width="2" height="772" fill="#5FDFDD" />
<rect x="1174" y="14" width="2" height="772" fill="#5FDFDD" />
<rect x="22" y="16" width="2" height="768" fill="#5FDFDD" />
<rect x="1176" y="16" width="2" height="768" fill="#5FDFDD" />
<rect x="20" y="18" width="2" height="764" fill="#5FDFDD" />
<rect x="1178" y="18" width="2" height="764" fill="#5FDFDD" />
<rect x="18" y="20" width="2" height="760" fill="#5FDFDD" />
<rect x="1180" y="20" width="2" height="760" fill="#5FDFDD" />
<rect x="16" y="22" width="2" height="756" fill="#5FDFDD" />
<rect x="1182" y="22" width="2" height="756" fill="#5FDFDD" />
<rect x="14" y="24" width="2" height="752" fill="#5FDFDD" />
<rect x="1184" y="24" width="2" height="752" fill="#5FDFDD" />
<rect x="12" y="26" width="2" height="748" fill="#5FDFDD" />
<rect x="1186" y="26" width="2" height="748" fill="#5FDFDD" />
<rect x="10" y="30" width="2" height="740" fill="#5FDFDD" />
<rect x="1188" y="30" width="2" height="740" fill="#5FDFDD" />
<rect x="8" y="32" width="2" height="736" fill="#5FDFDD" />
<rect x="1190" y="32" width="2" height="736" fill="#5FDFDD" />
<rect x="6" y="36" width="2" height="728" fill="#5FDFDD" />
<rect x="1192" y="36" width="2" height="728" fill="#5FDFDD" />
<rect x="4" y="40" width="2" height="720" fill="#5FDFDD" />
<rect x="1194" y="40" width="2" height="720" fill="#5FDFDD" />
<rect x="2" y="46" width="2" height="708" fill="#5FDFDD" />
<rect x="1196" y="46" width="2" height="708" fill="#5FDFDD" />
<rect x="0" y="54" width="2" height="692" fill="#5FDFDD" />
<rect x="1198" y="54" width="2" height="692" fill="#5FDFDD" />
<rect x="50" y="798" width="4" height="2" fill="#5FDFDD" />
<rect x="1146" y="798" width="4" height="2" fill="#5FDFDD" />
</svg>